#!OML:ASF F:\VICON\USERDATA\INSTALL\Justin_Nancy\Justin_Nancy.ASF
:FULLY-SPECIFIED
:DEGREES
142
root -0.558989 16.5723 25.7182 0.646827 -3.52576 -1.39451
lowerback 11.2074 0.220417 1.39185
upperback 0.951051 0.633479 3.02243
thorax -5.31445 0.312152 2.28285
lowerneck -23.9001 -2.5862 -8.22149
upperneck 14.5959 -1.87298 5.45516
head 8.57828 -0.755964 2.93732
rclavicle -3.8763e-015 -2.70347e-014
rhumerus -45.7849 10.7503 -91.492
rradius 121.543
rwrist -19.6251
rhand -7.80768 19.5769
rfingers 7.12502
rthumb 18.0939 -9.60148
lclavicle -3.8763e-015 -2.70347e-014
lhumerus -45.176 -7.76334 96.909
lradius 109.211
lwrist 20.3102
lhand -19.5467 9.96509
lfingers 7.12502
lthumb 6.77741 39.8366
rfemur -20.8425 4.83537 29.6086
rtibia 47.3152
rfoot -18.0956 -13.4476
rtoes 3.02614
lfemur -8.45238 -0.649574 -14.052
ltibia 82.31
lfoot 23.6571 -8.82304
ltoes 2.87484
143
root -0.579217 16.5541 26.0866 0.756565 -2.82278 -0.992184
lowerback 11.0403 0.1982 0.930894
upperback 0.925711 0.538522 2.93546
thorax -5.24795 0.27522 2.46635
lowerneck -23.9998 -2.47708 -8.27408
upperneck 14.7473 -1.75835 5.72754
head 8.64165 -0.67521 3.0594
rclavicle -1.75924e-014 -5.56597e-015
rhumerus -44.5094 11.1282 -91.1804
rradius 121.429
rwrist -19.4678
rhand -7.92783 22.3882
rfingers 7.12502
rthumb 17.9783 -6.8009
lclavicle -1.75924e-014 -5.56597e-015
lhumerus -45.9569 -7.12702 96.7973
lradius 109.034
lwrist 20.5128
lhand -19.1073 10.2242
lfingers 7.12502
lthumb 7.20154 40.0816
rfemur -19.5851 4.0321 29.3648
rtibia 47.3288
rfoot -18.8914 -14.3387
rtoes 0.557247
lfemur -10.8879 -0.677422 -14.1035
ltibia 84.0665
lfoot 21.9592 -9.136
ltoes 1.77697
144
root -0.593139 16.5419 26.4521 0.993015 -2.61602 -0.484716
lowerback 10.8077 0.407055 0.342831
upperback 0.803443 0.736835 2.82464
thorax -5.25941 0.386045 2.65242
lowerneck -23.6717 -2.53029 -8.32482
upperneck 14.5317 -1.8513 5.80249
head 8.52146 -0.71573 3.07659
rclavicle 7.35503e-015 1.66979e-014
rhumerus -43.6526 11.2605 -90.806
rradius 121.622
rwrist -19.0846
rhand -8.12282 22.586
rfingers 7.12502
rthumb 17.7907 -6.62015
lclavicle 7.35503e-015 1.66979e-014
lhumerus -46.9483 -6.79922 96.8593
lradius 109.28
lwrist 21.1335
lhand -19.0187 11.552
lfingers 7.12502
lthumb 7.28707 41.4065
rfemur -18.253 3.33306 28.9691
rtibia 47.1384
rfoot -19.3944 -15.1049
rtoes -3.55942
lfemur -13.2597 -0.165836 -14.4377
ltibia 85.466
lfoot 19.9013 -9.4476
ltoes 0.873764
145
root -0.611235 16.5401 26.8032 1.34783 -2.61663 -0.72753
lowerback 10.4525 0.708445 0.390533
upperback 0.803861 1.14222 2.93894
thorax -5.07981 0.585545 2.68545
lowerneck -23.5217 -2.66889 -8.30402
upperneck 14.2149 -2.05242 5.81295
head 8.40357 -0.806997 3.04405
rclavicle -2.28602e-015 -3.97569e-015
rhumerus -42.6201 11.0973 -90.3544
rradius 122.009
rwrist -18.6618
rhand -7.73272 22.1975
rfingers 7.12502
rthumb 18.166 -6.97423
lclavicle -2.28602e-015 -3.97569e-015
lhumerus -47.5888 -6.72242 97.0318
lradius 109.511
lwrist 21.4809
lhand -19.5244 12.9312
lfingers 7.12502
lthumb 6.7989 42.8021
rfemur -16.8116 3.01489 29.4276
rtibia 46.628
rfoot -20.0848 -15.7487
rtoes -6.12689
lfemur -15.842 0.654547 -13.8094
ltibia 86.6224
lfoot 17.5428 -9.6745
ltoes -0.673077
146
root -0.625996 16.5583 27.1671 1.48741 -2.40439 -1.02502
lowerback 10.1934 0.992508 0.619735
upperback 0.896572 1.54195 3.0203
thorax -4.85208 0.777745 2.58503
lowerneck -23.4801 -2.82619 -8.30052
upperneck 13.976 -2.29323 5.96144
head 8.33564 -0.902608 3.0582
rclavicle 2.08724e-015 7.95139e-015
rhumerus -41.733 10.7683 -89.9283
rradius 122.666
rwrist -18.4983
rhand -7.49632 21.9732
rfingers 7.12502
rthumb 18.3934 -7.1772
lclavicle 2.08724e-015 7.95139e-015
lhumerus -48.1933 -6.98628 97.2457
lradius 109.706
lwrist 21.5084
lhand -19.7905 12.8106
lfingers 7.12502
lthumb 6.54206 42.6895
rfemur -15.0259 2.78562 29.89
rtibia 45.8266
rfoot -21.1286 -16.173
rtoes -6.56824
lfemur -18.0552 1.12447 -13.2299
ltibia 87.3623
lfoot 15.1177 -9.54467
ltoes -4.83485
147
root -0.631051 16.586 27.5479 1.59305 -2.20318 -1.01654
lowerback 10.029 1.32907 0.705675
upperback 0.882781 1.9931 2.96822
thorax -4.78857 0.998408 2.41982
lowerneck -23.7264 -3.12611 -8.52117
upperneck 14.1247 -2.69001 6.35164
head 8.46732 -1.05712 3.17549
rclavicle -2.10712e-014 -5.56597e-015
rhumerus -41.1359 10.3002 -89.5351
rradius 123.45
rwrist -18.7216
rhand -7.69379 22.2129
rfingers 7.12502
rthumb 18.2035 -6.95527
lclavicle -2.10712e-014 -5.56597e-015
lhumerus -48.9248 -7.3981 97.376
lradius 109.902
lwrist 21.5506
lhand -19.2257 11.6219
lfingers 7.12502
lthumb 7.08728 41.4833
rfemur -13.1092 2.7028 29.9349
rtibia 44.8635
rfoot -21.6112 -16.3909
rtoes -7.70594
lfemur -19.9318 1.45203 -13.2374
ltibia 87.6201
lfoot 12.8555 -9.06976
ltoes -7.54999
148
root -0.629931 16.6228 27.9297 1.73073 -1.99912 -1.2246
lowerback 9.89652 1.62449 0.961638
upperback 0.741376 2.42116 3.06999
thorax -4.87329 1.20635 2.32314
lowerneck -23.7649 -3.42307 -8.9728
upperneck 14.3283 -3.03635 6.78618
head 8.58667 -1.19926 3.35325
rclavicle -2.38542e-014 -8.74653e-015
rhumerus -40.8466 9.95118 -89.0525
rradius 124.365
rwrist -19.2198
rhand -7.80602 22.3384
rfingers 7.12502
rthumb 18.0955 -6.83984
lclavicle -2.38542e-014 -8.74653e-015
lhumerus -49.8278 -7.58929 97.6359
lradius 110.139
lwrist 21.6755
lhand -18.4124 10.3527
lfingers 7.12502
lthumb 7.87232 40.1862
rfemur -11.2242 2.56044 30.1542
rtibia 43.8887
rfoot -21.5827 -16.3704
rtoes -10.1108
lfemur -21.6525 1.87625 -13.1342
ltibia 87.4816
lfoot 10.5996 -8.88782
ltoes -8.88763
149
root -0.626076 16.6785 28.302 1.93636 -1.90252 -1.61821
lowerback 9.70799 1.90733 1.5362
upperback 0.527366 2.86331 3.08209
thorax -4.98027 1.41242 1.95319
lowerneck -23.359 -3.57725 -9.12241
upperneck 14.3239 -3.312 7.1665
head 8.55157 -1.3031 3.47077
rclavicle -9.93923e-016 3.49861e-014
rhumerus -40.616 9.56233 -88.8519
rradius 125.203
rwrist -20.0171
rhand -7.71361 22.5418
rfingers 7.12502
rthumb 18.1844 -6.62821
lclavicle -9.93923e-016 3.49861e-014
lhumerus -50.7857 -7.99743 97.6251
lradius 110.442
lwrist 21.9783
lhand -17.826 9.61169
lfingers 7.12502
lthumb 8.43823 39.4231
rfemur -9.5111 2.58497 30.5071
rtibia 42.9002
rfoot -21.0444 -15.9997
rtoes -11.7393
lfemur -23.371 2.47341 -12.8881
ltibia 86.9821
lfoot 8.38466 -8.84568
ltoes -10.507
150
root -0.620398 16.7324 28.6741 2.13796 -2.01233 -1.78253
lowerback 9.54842 2.27537 2.02513
upperback 0.325767 3.39833 2.89526
thorax -5.07554 1.66211 1.41226
lowerneck -23.3809 -3.71279 -9.19964
upperneck 14.4574 -3.56859 7.62112
head 8.63539 -1.37899 3.60728
rclavicle -5.04913e-014 -2.3059e-014
rhumerus -40.3299 8.95961 -88.8443
rradius 125.953
rwrist -20.9397
rhand -7.45092 22.8382
rfingers 7.12502
rthumb 18.4371 -6.30804
lclavicle -5.04913e-014 -2.3059e-014
lhumerus -51.7891 -8.51263 97.4294
lradius 110.825
lwrist 22.4193
lhand -17.4391 9.02408
lfingers 7.12502
lthumb 8.81161 38.8201
rfemur -7.77113 2.89659 30.6068
rtibia 41.9021
rfoot -19.6138 -15.5641
rtoes -12.872
lfemur -25.1391 3.09488 -13.0057
ltibia 86.1944
lfoot 6.40499 -8.46753
ltoes -11.8656
151
root -0.610818 16.8086 29.0677 2.35195 -2.0396 -1.9257
lowerback 9.16366 2.59463 2.61537
upperback 0.290998 3.85878 2.66829
thorax -4.847 1.87511 0.801197
lowerneck -23.9343 -3.89972 -9.17636
upperneck 14.6711 -3.85436 7.92459
head 8.83501 -1.46795 3.67117
rclavicle -2.47487e-014 -2.78299e-014
rhumerus -39.8259 8.37724 -88.808
rradius 126.679
rwrist -21.7448
rhand -7.34391 22.633
rfingers 7.12502
rthumb 18.54 -6.50352
lclavicle -2.47487e-014 -2.78299e-014
lhumerus -52.5691 -8.83869 97.0993
lradius 111.337
lwrist 22.7642
lhand -16.7555 9.30799
lfingers 7.12502
lthumb 9.47129 39.0752
rfemur -5.89163 2.91226 30.5945
rtibia 40.7573
rfoot -17.4303 -14.8773
rtoes -15.7642
lfemur -26.537 3.59104 -13.2514
ltibia 84.9036
lfoot 4.47675 -7.75791
ltoes -12.1833
152
root -0.598619 16.8918 29.463 2.54418 -2.00073 -2.22703
lowerback 8.73471 2.8331 3.3667
upperback 0.235703 4.22413 2.48018
thorax -4.59519 2.04012 0.163504
lowerneck -23.8543 -4.09821 -9.22976
upperneck 14.6931 -4.19492 8.29803
head 8.87249 -1.5909 3.76128
rclavicle -2.09718e-014 -2.78299e-014
rhumerus -39.3758 8.00111 -88.8842
rradius 127.325
rwrist -22.3019
rhand -7.59573 22.104
rfingers 7.12502
rthumb 18.2978 -7.05535
lclavicle -2.09718e-014 -2.78299e-014
lhumerus -53.3334 -8.94524 96.6748
lradius 111.673
lwrist 23.1106
lhand -16.4294 9.68518
lfingers 7.12502
lthumb 9.78591 39.4378
rfemur -4.08091 3.00587 30.6882
rtibia 39.4884
rfoot -15.2904 -13.6858
rtoes -17.2815
lfemur -27.7028 3.99948 -13.3674
ltibia 83.2613
lfoot 2.85558 -6.90101
ltoes -11.6239
153
root -0.603264 16.9793 29.8796 2.3413 -2.15591 -2.70556
lowerback 8.54269 3.10295 4.00797
upperback 0.234809 4.63279 2.43853
thorax -4.4275 2.23088 -0.271382
lowerneck -23.4998 -4.21332 -9.33224
upperneck 14.6226 -4.42412 8.66714
head 8.82366 -1.67149 3.87346
rclavicle -2.8128e-014 -1.82882e-014
rhumerus -39.115 7.7177 -89.0304
rradius 127.721
rwrist -22.5417
rhand -7.80101 22.1292
rfingers 7.12502
rthumb 18.1003 -7.04859
lclavicle -2.8128e-014 -1.82882e-014
lhumerus -54.319 -8.94775 96.2475
lradius 111.951
lwrist 23.3939
lhand -15.806 9.06043
lfingers 7.12502
lthumb 10.3873 38.7839
rfemur -1.82199 3.42411 31.1112
rtibia 38.0531
rfoot -13.4704 -12.4156
rtoes -16.2727
lfemur -28.2386 4.72121 -13.1452
ltibia 81.2305
lfoot 1.50323 -6.42597
ltoes -13.617
154
root -0.610297 17.0776 30.3291 1.76427 -2.28639 -3.10522
lowerback 8.03342 3.38334 4.44324
upperback 0.662565 4.99777 2.57385
thorax -3.6608 2.42572 -0.362972
lowerneck -23.6715 -4.3511 -9.592
upperneck 14.5442 -4.54934 8.87851
head 8.85032 -1.7182 3.97053
rclavicle -9.24349e-015 3.18055e-015
rhumerus -38.5993 7.50743 -88.8244
rradius 128.035
rwrist -22.6819
rhand -7.65288 22.6906
rfingers 7.12502
rthumb 18.2428 -6.47393
lclavicle -9.24349e-015 3.18055e-015
lhumerus -55.0119 -8.75294 96.0419
lradius 112.175
lwrist 23.6603
lhand -15.0059 7.75138
lfingers 7.12502
lthumb 11.1591 37.4346
rfemur 0.852179 3.64384 31.4353
rtibia 36.5997
rfoot -11.1883 -10.9215
rtoes -15.6077
lfemur -27.9806 5.32053 -13.0348
ltibia 78.745
lfoot 0.102635 -5.72194
ltoes -15.7747
155
root -0.587841 17.1948 30.77 1.80689 -1.84053 -2.76681
lowerback 7.92163 3.42997 4.47531
upperback 0.138176 5.07586 2.38941
thorax -4.12254 2.44668 -0.591113
lowerneck -23.5144 -4.27127 -9.50898
upperneck 15.0789 -4.49731 8.79244
head 8.99831 -1.70233 3.94312
rclavicle 4.47266e-014 3.10104e-014
rhumerus -39.2579 7.49801 -88.9159
rradius 128.42
rwrist -22.533
rhand -7.63611 22.8396
rfingers 7.12502
rthumb 18.2589 -6.3234
lclavicle 4.47266e-014 3.10104e-014
lhumerus -56.7089 -8.34904 95.7873
lradius 112.331
lwrist 23.9857
lhand -14.6327 7.60849
lfingers 7.12502
lthumb 11.519 37.272
rfemur 2.69562 3.00682 30.5776
rtibia 35.1603
rfoot -9.04066 -8.89072
rtoes -14.7343
lfemur -28.289 5.09916 -14.1259
ltibia 75.8496
lfoot -0.963449 -4.28657
ltoes -17.6259
156
root -0.544103 17.3204 31.1947 2.52485 -0.96482 -1.62442
lowerback 6.54307 3.41144 4.05099
upperback -0.0730767 4.92419 1.93127
thorax -3.56874 2.3882 -0.72817
lowerneck -23.6466 -4.29286 -9.42529
upperneck 15.2819 -4.5028 8.54918
head 9.0824 -1.72388 3.84527
rclavicle 2.61402e-014 -7.95139e-016
rhumerus -38.918 7.45158 -88.825
rradius 128.715
rwrist -22.3099
rhand -7.74983 22.2748
rfingers 7.12502
rthumb 18.1495 -6.89842
lclavicle 2.61402e-014 -7.95139e-016
lhumerus -57.1452 -8.01678 95.504
lradius 111.987
lwrist 24.0276
lhand -14.9516 8.22407
lfingers 7.12502
lthumb 11.2114 37.9045
rfemur 3.71265 1.54409 28.5004
rtibia 33.695
rfoot -6.50918 -6.42988
rtoes -15.1653
lfemur -29.2662 4.20876 -16.3605
ltibia 72.593
lfoot -1.48646 -2.38098
ltoes -17.818
